<svg width="100%" viewBox="0 0 680 564" role="img" xmlns="http://www.w3.org/2000/svg">
<title>ERD schema การเงิน 9 ตาราง — สไตล์เขียว พร้อม PK/FK</title>
<desc>users เป็นตารางหลัก เชื่อมหนึ่งต่อกลุ่มไปยัง transactions, budgets, goals, chat_messages, achievements, notifications และ subscriptions ส่วน categories เชื่อมไปยัง transactions และ budgets ทุกความสัมพันธ์ระบุ PK และ FK</desc>

<line x1="340" y1="250" x2="110" y2="134" stroke="#9AA39A" stroke-width="1.4"/>
<line x1="340" y1="250" x2="260" y2="134" stroke="#9AA39A" stroke-width="1.4"/>
<line x1="340" y1="250" x2="425" y2="134" stroke="#9AA39A" stroke-width="1.4"/>
<line x1="340" y1="250" x2="592" y2="134" stroke="#9AA39A" stroke-width="1.4"/>
<line x1="340" y1="324" x2="135" y2="440" stroke="#9AA39A" stroke-width="1.4"/>
<line x1="340" y1="324" x2="325" y2="440" stroke="#9AA39A" stroke-width="1.4"/>
<line x1="340" y1="324" x2="525" y2="440" stroke="#9AA39A" stroke-width="1.4"/>
<line x1="85" y1="250" x2="80" y2="134" stroke="#9AA39A" stroke-width="1.4"/>
<line x1="140" y1="250" x2="245" y2="134" stroke="#9AA39A" stroke-width="1.4"/>

<g font-family="sans-serif" font-size="12" font-weight="500" fill="#6E5E2F">
<text x="330" y="244">1</text>
<text x="330" y="344">1</text>
<text x="100" y="244">1</text>
<text x="120" y="150">N</text>
<text x="58" y="150">N</text>
<text x="264" y="150">N</text>
<text x="230" y="150">N</text>
<text x="416" y="150">N</text>
<text x="582" y="150">N</text>
<text x="138" y="458">N</text>
<text x="322" y="458">N</text>
<text x="518" y="458">N</text>
</g>

<g>
<rect x="245" y="250" width="190" height="74" fill="#FFFFFF" stroke="#1C7A4A" stroke-width="1.5"/>
<rect x="245" y="250" width="190" height="24" fill="#1C7A4A"/>
<text x="254" y="267" font-family="sans-serif" font-size="13" font-weight="500" fill="#FFFFFF">users</text>
<text x="254" y="292" font-family="sans-serif" font-size="11" fill="#6B6333">id (PK) · email · phone</text>
<text x="254" y="310" font-family="sans-serif" font-size="11" fill="#6B6333">income · level · streak</text>
</g>

<g>
<rect x="20" y="40" width="150" height="94" fill="#FFFFFF" stroke="#1C7A4A" stroke-width="1.5"/>
<rect x="20" y="40" width="150" height="24" fill="#1C7A4A"/>
<text x="29" y="57" font-family="sans-serif" font-size="13" font-weight="500" fill="#FFFFFF">transactions</text>
<text x="29" y="82" font-family="sans-serif" font-size="11" fill="#6B6333">id (PK) · user_id (FK)</text>
<text x="29" y="100" font-family="sans-serif" font-size="11" fill="#6B6333">type · amount · source</text>
<text x="29" y="118" font-family="sans-serif" font-size="11" fill="#6B6333">category_id (FK)</text>
</g>

<g>
<rect x="185" y="40" width="150" height="94" fill="#FFFFFF" stroke="#1C7A4A" stroke-width="1.5"/>
<rect x="185" y="40" width="150" height="24" fill="#1C7A4A"/>
<text x="194" y="57" font-family="sans-serif" font-size="13" font-weight="500" fill="#FFFFFF">budgets</text>
<text x="194" y="82" font-family="sans-serif" font-size="11" fill="#6B6333">id (PK) · user_id (FK)</text>
<text x="194" y="100" font-family="sans-serif" font-size="11" fill="#6B6333">category_id (FK)</text>
<text x="194" y="118" font-family="sans-serif" font-size="11" fill="#6B6333">amount · period</text>
</g>

<g>
<rect x="350" y="40" width="150" height="94" fill="#FFFFFF" stroke="#1C7A4A" stroke-width="1.5"/>
<rect x="350" y="40" width="150" height="24" fill="#1C7A4A"/>
<text x="359" y="57" font-family="sans-serif" font-size="13" font-weight="500" fill="#FFFFFF">goals</text>
<text x="359" y="82" font-family="sans-serif" font-size="11" fill="#6B6333">id (PK) · user_id (FK)</text>
<text x="359" y="100" font-family="sans-serif" font-size="11" fill="#6B6333">name · target</text>
<text x="359" y="118" font-family="sans-serif" font-size="11" fill="#6B6333">current · deadline</text>
</g>

<g>
<rect x="515" y="40" width="155" height="94" fill="#FFFFFF" stroke="#1C7A4A" stroke-width="1.5"/>
<rect x="515" y="40" width="155" height="24" fill="#1C7A4A"/>
<text x="524" y="57" font-family="sans-serif" font-size="13" font-weight="500" fill="#FFFFFF">chat_messages</text>
<text x="524" y="82" font-family="sans-serif" font-size="11" fill="#6B6333">id (PK) · user_id (FK)</text>
<text x="524" y="100" font-family="sans-serif" font-size="11" fill="#6B6333">role · content</text>
<text x="524" y="118" font-family="sans-serif" font-size="11" fill="#6B6333">context</text>
</g>

<g>
<rect x="20" y="250" width="150" height="74" fill="#FFFFFF" stroke="#1C7A4A" stroke-width="1.5"/>
<rect x="20" y="250" width="150" height="24" fill="#1C7A4A"/>
<text x="29" y="267" font-family="sans-serif" font-size="13" font-weight="500" fill="#FFFFFF">categories</text>
<text x="29" y="292" font-family="sans-serif" font-size="11" fill="#6B6333">id (PK) · name · type</text>
<text x="29" y="310" font-family="sans-serif" font-size="11" fill="#6B6333">icon · color</text>
</g>

<g>
<rect x="55" y="440" width="160" height="94" fill="#FFFFFF" stroke="#1C7A4A" stroke-width="1.5"/>
<rect x="55" y="440" width="160" height="24" fill="#1C7A4A"/>
<text x="64" y="457" font-family="sans-serif" font-size="13" font-weight="500" fill="#FFFFFF">achievements</text>
<text x="64" y="482" font-family="sans-serif" font-size="11" fill="#6B6333">id (PK) · user_id (FK)</text>
<text x="64" y="500" font-family="sans-serif" font-size="11" fill="#6B6333">type · unlocked_at</text>
</g>

<g>
<rect x="245" y="440" width="160" height="94" fill="#FFFFFF" stroke="#1C7A4A" stroke-width="1.5"/>
<rect x="245" y="440" width="160" height="24" fill="#1C7A4A"/>
<text x="254" y="457" font-family="sans-serif" font-size="13" font-weight="500" fill="#FFFFFF">notifications</text>
<text x="254" y="482" font-family="sans-serif" font-size="11" fill="#6B6333">id (PK) · user_id (FK)</text>
<text x="254" y="500" font-family="sans-serif" font-size="11" fill="#6B6333">type · title</text>
<text x="254" y="518" font-family="sans-serif" font-size="11" fill="#6B6333">body · read</text>
</g>

<g>
<rect x="435" y="440" width="180" height="94" fill="#FFFFFF" stroke="#1C7A4A" stroke-width="1.5"/>
<rect x="435" y="440" width="180" height="24" fill="#1C7A4A"/>
<text x="444" y="457" font-family="sans-serif" font-size="13" font-weight="500" fill="#FFFFFF">subscriptions</text>
<text x="444" y="482" font-family="sans-serif" font-size="11" fill="#6B6333">id (PK) · user_id (FK)</text>
<text x="444" y="500" font-family="sans-serif" font-size="11" fill="#6B6333">name · amount</text>
<text x="444" y="518" font-family="sans-serif" font-size="11" fill="#6B6333">cycle · next_billing</text>
</g>
</svg>
